<svg width="32" height="32" viewBox="0 0 32 32" fill="none" xmlns="http://www.w3.org/2000/svg">
<rect width="32" height="32" rx="16" fill="#DDDDDD"/>
<path d="M17.3888 20.0112C17.0286 20.0112 16.9299 19.8227 16.9085 19.6655C16.9022 19.6126 16.9066 19.5589 16.9214 19.5079C16.9361 19.4568 16.961 19.4096 16.9943 19.3692C17.1143 19.2166 17.3031 19.2076 17.4274 19.2031H17.4403C22.6983 19.0236 25.2073 17.9237 26.3867 17.0259C27.2015 16.2762 27.03 15.8048 26.9785 15.6522C26.421 14.0989 21.4031 12.824 17.6118 12.8105H17.5261C17.3545 12.8105 17.1487 12.815 17.0114 12.6534C16.9761 12.6115 16.9498 12.5622 16.9343 12.5088C16.9187 12.4553 16.9143 12.399 16.9213 12.3437C16.9685 11.9576 17.3888 11.989 17.5475 12.0025H17.629C19.8506 12.0564 22.2523 12.4065 24.0536 12.9362C26.5153 13.659 27.8106 14.678 27.9049 15.962V16.0113C27.8148 17.3042 26.4982 18.3367 23.9893 19.073C21.8569 19.6573 19.6656 19.9738 17.4617 20.0157H17.3888V20.0112ZM14.5925 20.0067H14.4639L14.3781 19.9977C12.2075 19.9557 10.0494 19.6438 7.94923 19.0685C5.48747 18.3412 4.19226 17.3267 4.10219 16.0428V15.9934C4.19226 14.7005 5.50891 13.668 8.01785 12.9318C10.1502 12.3474 12.3415 12.0309 14.5454 11.989H14.5925C14.97 11.98 15.0772 12.1686 15.0943 12.3347C15.1018 12.387 15.0988 12.4403 15.0855 12.4913C15.0722 12.5423 15.0489 12.5899 15.0171 12.631C14.8928 12.7836 14.7041 12.7926 14.5797 12.8016H14.5668C9.30877 12.9722 6.79983 14.0765 5.62042 14.9743C4.80555 15.7285 4.9771 16.1954 5.02857 16.3525C5.58611 17.9058 10.604 19.1762 14.3953 19.1897H14.481C14.6483 19.1897 14.8584 19.1897 14.9957 19.3468C15.0686 19.4321 15.0986 19.5443 15.0815 19.661C15.0472 19.9663 14.7812 20.0112 14.5925 20.0112V20.0067ZM16.0036 21.9012C15.6733 21.9012 15.6604 21.6004 15.6347 21.1425L15.5961 19.9439C15.5423 16.9152 15.5566 13.8857 15.639 10.8578C15.6562 10.3999 15.6733 10.0991 16.0036 10.0991C16.3295 10.0991 16.3467 10.3999 16.3681 10.8578L16.4067 12.0609C16.4619 15.088 16.449 18.116 16.3681 21.1425C16.3467 21.6004 16.3295 21.9012 16.0036 21.9012Z" fill="black"/>
<path d="M16.0031 16.4601C14.5835 16.4601 13.2497 16.4466 12.2461 16.4242C11.8643 16.4162 11.4825 16.4027 11.101 16.3838C10.6636 16.3613 10.3762 16.3479 10.3762 16.0022C10.3762 15.6565 10.6636 15.6431 11.101 15.6161L12.2461 15.5757C15.1324 15.5178 18.0195 15.5312 20.9052 15.6161C21.3383 15.6386 21.6257 15.6565 21.6257 16.0022C21.6257 16.3479 21.3383 16.3613 20.9052 16.3838C20.635 16.4017 20.249 16.4152 19.76 16.4287C18.7565 16.4466 17.4184 16.4601 16.0031 16.4601Z" fill="black"/>
<path d="M17.3896 20.0113V20.1145H17.4839V20.0113H17.3896ZM16.995 19.3693L16.9178 19.3065L16.9907 19.3693H16.995ZM26.3874 17.026L26.4432 17.1113L26.4475 17.1068H26.4518L26.3874 17.026ZM26.9793 15.6523L26.8892 15.6882L26.975 15.6523H26.9793ZM27.9056 15.9845L28 15.9935V15.9755L27.9056 15.9845ZM17.3896 20.0158V19.9125H17.2909V20.0158H17.3896ZM14.5933 20.0158H14.6876V19.9125H14.5933V20.0113V20.0158ZM14.4646 20.0068L14.4689 19.908L14.4603 20.0068H14.4646ZM4.10293 16.0249L4.00429 16.0159V16.0339L4.10293 16.0249ZM14.589 11.9936V12.0969H14.5933V11.9846L14.589 11.9936ZM5.62116 14.9744L5.56112 14.8936L5.55683 14.8981L5.62116 14.9744ZM15.0822 19.6611L14.9921 19.6477L15.0865 19.6611H15.0822ZM14.5933 20.0113H14.4946V20.1145H14.5933V20.0113ZM15.6355 21.1426L15.5411 21.1471H15.6355V21.1426ZM15.6397 10.8578L15.5411 10.8533H15.6355L15.6397 10.8578ZM16.3688 10.8578L16.4675 10.8533H16.3688V10.8578ZM16.3688 21.1426L16.4675 21.1471H16.3688V21.1426ZM17.3896 19.9125C17.2266 19.9125 17.1322 19.8676 17.0893 19.8227C17.0413 19.7792 17.0107 19.7183 17.0036 19.6522L16.8149 19.6791C16.8277 19.7734 16.8663 19.8856 16.9607 19.9754C17.055 20.0652 17.1923 20.1101 17.3896 20.1101V19.9125ZM17.0036 19.6522C16.9993 19.6135 17.0028 19.5744 17.0139 19.5373C17.025 19.5002 17.0434 19.4659 17.0679 19.4367L16.9178 19.3065C16.832 19.4097 16.7977 19.5444 16.8149 19.6791L17.0079 19.6522H17.0036ZM17.0679 19.4367C17.1537 19.32 17.2995 19.311 17.4324 19.302L17.4239 19.1C17.3038 19.109 17.0722 19.1135 16.9178 19.3065L17.0679 19.4367ZM17.4282 19.302H17.441V19.1H17.4282V19.302ZM17.4453 19.302C22.7119 19.1269 25.2423 18.0226 26.4432 17.1113L26.3317 16.9452C25.1737 17.8295 22.6862 18.9249 17.4367 19.1L17.4453 19.302ZM26.4518 17.1023C26.8678 16.7162 27.0436 16.3975 27.1036 16.1371C27.1637 15.8767 27.0994 15.7017 27.0693 15.6164L26.8892 15.6882C26.9149 15.7555 26.9621 15.8902 26.9149 16.0922C26.8721 16.2942 26.7219 16.586 26.3231 16.9542L26.4518 17.1023ZM27.0693 15.6164C26.9149 15.1899 26.4689 14.8083 25.8599 14.4671C25.1183 14.0775 24.339 13.772 23.5354 13.5558C21.6034 13.0196 19.6154 12.7362 17.6169 12.7119V12.9139C19.4996 12.9229 21.6912 13.2416 23.4839 13.7534C24.3803 14.0092 25.1694 14.31 25.7698 14.6422C26.3703 14.9789 26.7648 15.3336 26.8849 15.6882L27.0693 15.6164ZM17.6083 12.7119H17.5268V12.9139H17.6169V12.7119H17.6083ZM17.5225 12.7119C17.3424 12.7119 17.1794 12.7119 17.0808 12.5907L16.935 12.7253C17.1065 12.9229 17.3638 12.9139 17.5225 12.9139V12.7119ZM17.0808 12.5907C17.0539 12.5593 17.0339 12.5221 17.022 12.4818C17.0102 12.4415 17.0068 12.399 17.0121 12.3572L16.8234 12.3303C16.802 12.4739 16.8449 12.6176 16.935 12.7209L17.0808 12.5862V12.5907ZM17.0121 12.3572C17.017 12.2968 17.0412 12.2399 17.0808 12.1956C17.1176 12.1571 17.1635 12.1292 17.2137 12.1148C17.3295 12.0834 17.4539 12.0924 17.5354 12.0969L17.5482 11.8948C17.471 11.8948 17.3124 11.8769 17.1623 11.9218C17.0851 11.9442 17.0079 11.9846 16.9478 12.0565C16.8792 12.1193 16.8363 12.2136 16.8192 12.3303L17.0121 12.3572ZM17.5354 12.0969L17.6212 12.1013L17.6297 11.8993H17.5482L17.5354 12.0969ZM17.6212 12.1013C19.8385 12.1507 22.2359 12.5009 24.0243 13.0261L24.0801 12.8331C21.9715 12.2551 19.8047 11.9416 17.6254 11.8993V12.1013H17.6212ZM24.0243 13.0261C25.2509 13.3853 26.1773 13.8207 26.8077 14.3145C27.4339 14.8083 27.7598 15.3605 27.8027 15.962L27.9957 15.9486C27.9485 15.2707 27.5797 14.6736 26.9235 14.1529C26.2716 13.6366 25.3195 13.1967 24.0843 12.8376L24.0286 13.0306L24.0243 13.0261ZM27.8027 15.9665V15.989L27.9957 15.971V15.9486L27.8027 15.9665ZM27.8027 15.971V15.998L27.9957 16.0159V15.989L27.807 15.971H27.8027ZM27.8027 15.998C27.7598 16.6085 27.4296 17.1651 26.7906 17.6679C26.1515 18.1662 25.208 18.6062 23.96 18.9698L24.0114 19.1673C25.2723 18.7947 26.2416 18.3503 26.9064 17.8295C27.5754 17.3043 27.9485 16.6983 27.9957 16.0114L27.8027 15.998ZM23.96 18.9743C21.8358 19.5545 19.6532 19.8679 17.4582 19.908V20.1101C19.7184 20.0652 22.1673 19.706 24.0114 19.1673L23.96 18.9743ZM17.4496 19.908H17.411V20.1101H17.4453V19.908H17.4496ZM17.4067 19.908H17.3853V20.1101H17.4067V19.908ZM14.5847 19.908L14.4646 19.9035L14.4475 20.1011L14.589 20.1101V19.908H14.5847ZM14.4646 19.9035L14.3788 19.8946L14.3703 20.0966L14.4518 20.1056L14.4646 19.9035ZM14.3788 19.8946C12.2157 19.8547 10.0648 19.5457 7.97141 18.9743L7.91994 19.1673C10.0273 19.7434 12.1926 20.0554 14.3703 20.0966L14.3746 19.8946H14.3788ZM7.97141 18.9743C6.75768 18.6107 5.82702 18.1797 5.19657 17.6859C4.57041 17.1921 4.24446 16.6399 4.20157 16.0384L4.00858 16.0518C4.05575 16.7297 4.42459 17.3268 5.08077 17.8475C5.73695 18.3638 6.68906 18.8037 7.92423 19.1673L7.9757 18.9743H7.97141ZM4.19728 16.0384V16.0114L4 16.0294V16.0518L4.19728 16.0384ZM4.19728 16.0294V16.0024L4.00429 15.9845V16.0114L4.193 16.0294H4.19728ZM4.19728 16.0024C4.24017 15.3919 4.57041 14.8353 5.20944 14.3325C5.84846 13.8342 6.79199 13.3942 8.04003 13.0306L7.98856 12.8331C6.72766 13.2057 5.7584 13.6501 5.09364 14.1709C4.42888 14.6961 4.05575 15.3066 4.00858 15.989L4.20157 16.0024H4.19728ZM8.04003 13.0261C10.1642 12.4459 12.3468 12.1325 14.5418 12.0924V11.8904C12.2816 11.9352 9.83274 12.2944 7.98856 12.8331L8.04003 13.0261ZM14.5504 12.0924H14.5847V11.8904H14.5504V12.0924ZM14.5933 12.0924C14.7648 12.0879 14.8592 12.1283 14.9106 12.1777C14.9664 12.2226 14.9878 12.2854 14.9964 12.3482L15.1894 12.3213C15.1761 12.2042 15.1209 12.0968 15.035 12.0205C14.9364 11.9308 14.7906 11.8859 14.5847 11.8859L14.589 12.0924H14.5933ZM14.9964 12.3482C15.0016 12.3873 14.9989 12.427 14.9886 12.4649C14.9783 12.5028 14.9605 12.538 14.9364 12.5682L15.0865 12.6984C15.168 12.5907 15.2066 12.4605 15.1894 12.3213L14.9964 12.3482ZM14.9364 12.5682C14.8506 12.6804 14.7005 12.6939 14.5718 12.7029L14.5804 12.9004C14.6962 12.8959 14.9321 12.887 15.0865 12.6984L14.9364 12.5637V12.5682ZM14.5761 12.7029H14.5633V12.9004H14.5761V12.7029ZM14.559 12.7029C9.29235 12.8735 6.76197 13.9778 5.55683 14.8936L5.67262 15.0552C6.83059 14.1753 9.31808 13.08 14.5675 12.9004L14.559 12.6984V12.7029ZM5.55254 14.9026C5.13653 15.2842 4.96069 15.6074 4.90064 15.8633C4.8406 16.1237 4.90493 16.3032 4.93495 16.3885L5.11508 16.3167C5.08935 16.2449 5.04217 16.1147 5.08935 15.9127C5.13224 15.7062 5.28234 15.4189 5.6812 15.0507L5.55254 14.8981V14.9026ZM4.93924 16.384C5.08935 16.8105 5.53967 17.1966 6.14868 17.5377C6.76626 17.8789 7.57255 18.1887 8.47319 18.4446C10.405 18.9823 12.393 19.2673 14.3917 19.293V19.091C12.5089 19.082 10.3174 18.7633 8.52466 18.2515C7.73449 18.0397 6.96817 17.7403 6.23874 17.3582C5.63402 17.0215 5.24375 16.6668 5.12366 16.3167L4.93924 16.3885V16.384ZM14.396 19.293H14.4775V19.091H14.3917V19.293H14.396ZM14.4818 19.293C14.6619 19.293 14.8249 19.293 14.9235 19.4142L15.0693 19.2796C14.8978 19.0775 14.6405 19.0865 14.4775 19.091V19.293H14.4818ZM14.9235 19.4142C14.975 19.4771 15.0007 19.5624 14.9921 19.6477L15.1808 19.6746C15.1905 19.6042 15.1856 19.5325 15.1663 19.4643C15.1471 19.3961 15.114 19.3331 15.0693 19.2796L14.9235 19.4142ZM14.9921 19.6477C14.975 19.7644 14.9192 19.8272 14.8506 19.8587C14.7777 19.9035 14.6791 19.9125 14.5933 19.9125V20.1145C14.6919 20.1145 14.8249 20.1011 14.9364 20.0427C15.0608 19.9754 15.1594 19.8631 15.1808 19.6746L14.9921 19.6477ZM16.0043 21.798C15.9565 21.8026 15.9086 21.7917 15.867 21.7666C15.8326 21.7395 15.8071 21.7018 15.7941 21.6588C15.7513 21.5421 15.7427 21.3715 15.7341 21.1381L15.5411 21.1471C15.5497 21.3715 15.5583 21.578 15.614 21.7306C15.644 21.807 15.6869 21.8788 15.7555 21.9282C15.8242 21.9776 15.9056 22 16.0043 22V21.798ZM15.7341 21.1381C15.7146 20.7388 15.7003 20.3392 15.6912 19.9395L15.5025 19.944C15.5111 20.4602 15.5239 20.8642 15.5411 21.1471L15.7341 21.1381ZM15.6912 19.9395C15.6741 18.8845 15.6612 17.4884 15.6612 16.0024H15.4682C15.4682 17.4884 15.4811 18.889 15.5025 19.944L15.6955 19.9395H15.6912ZM15.6612 16.0024C15.6612 14.512 15.6741 13.1159 15.6955 12.0609H15.5025C15.4811 13.1114 15.4682 14.512 15.4682 16.0024H15.6612ZM15.6955 12.0609C15.7041 11.5492 15.7169 11.1451 15.7341 10.8623L15.5411 10.8533C15.5239 11.1362 15.5111 11.5402 15.5025 12.0565L15.6955 12.0609ZM15.7341 10.8623C15.7427 10.6289 15.7555 10.4583 15.7941 10.3416C15.8156 10.2877 15.837 10.2563 15.867 10.2383C15.9081 10.2117 15.9561 10.1991 16.0043 10.2024V10.0004C15.9162 9.99645 15.8292 10.0216 15.7555 10.0722C15.6902 10.1214 15.6408 10.1903 15.614 10.2698C15.5583 10.4224 15.5497 10.6289 15.5411 10.8533L15.7341 10.8623ZM16.0043 10.2024C16.0729 10.2024 16.1115 10.2159 16.1415 10.2383C16.1673 10.2563 16.193 10.2877 16.2101 10.3416C16.253 10.4583 16.2616 10.6289 16.2745 10.8623L16.4675 10.8533C16.4546 10.6289 16.446 10.4224 16.3903 10.2698C16.3644 10.1911 16.3166 10.1223 16.253 10.0722C16.1794 10.0216 16.0923 9.99645 16.0043 10.0004V10.2024ZM16.2745 10.8623L16.3131 12.0609H16.5018C16.4956 11.6568 16.4842 11.2527 16.4675 10.8489L16.2745 10.8623ZM16.3131 12.0609C16.3345 13.1114 16.3431 14.512 16.3431 16.0024H16.5361C16.5361 14.512 16.5275 13.1114 16.5018 12.0565L16.3131 12.0609ZM16.3431 16.0024C16.3431 17.4884 16.3345 18.889 16.3131 19.9395L16.5018 19.944C16.5275 18.889 16.5361 17.4884 16.5361 16.0024H16.3431ZM16.3131 19.9395C16.304 20.3392 16.2897 20.7388 16.2702 21.1381L16.4675 21.1471C16.4803 20.8642 16.4932 20.4602 16.5018 19.944L16.3131 19.9395ZM16.2702 21.1381C16.2616 21.3715 16.253 21.5421 16.2101 21.6588C16.193 21.7127 16.1673 21.7441 16.1415 21.7666C16.1 21.7917 16.052 21.8026 16.0043 21.798V22C16.0986 22 16.1844 21.9776 16.253 21.9282C16.3166 21.8781 16.3644 21.8093 16.3903 21.7306C16.446 21.578 16.4546 21.3715 16.4675 21.1471L16.2745 21.1381H16.2702ZM16.0043 16.3616C14.5847 16.3616 13.2509 16.3481 12.2473 16.3257V16.5277C13.2466 16.5501 14.5847 16.5636 16.0043 16.5636V16.3616ZM12.2473 16.3257C11.8669 16.3176 11.4866 16.3042 11.1065 16.2853L11.0936 16.4873L12.243 16.5277L12.2473 16.3257ZM11.1065 16.2853C10.8835 16.2718 10.7205 16.2628 10.609 16.2179C10.57 16.2048 10.5357 16.1798 10.5104 16.1461C10.4849 16.1031 10.4729 16.0529 10.4761 16.0024H10.2831C10.2831 16.1012 10.3045 16.191 10.3517 16.2628C10.3989 16.3346 10.4675 16.3795 10.5404 16.4065C10.6862 16.4648 10.8835 16.4738 11.0979 16.4873L11.1065 16.2853ZM10.4761 16.0024C10.4761 15.9306 10.4889 15.8857 10.5104 15.8588C10.5362 15.8227 10.5722 15.796 10.6133 15.7825C10.7205 15.7376 10.8835 15.7286 11.1065 15.7151L11.0936 15.5176C10.8835 15.5266 10.6862 15.5356 10.5447 15.5939C10.4674 15.6215 10.4 15.6732 10.3517 15.7421C10.3036 15.8193 10.2796 15.9103 10.2831 16.0024H10.4761ZM11.1065 15.7151C11.3724 15.7017 11.7584 15.6882 12.2473 15.6792V15.4772C11.7541 15.4862 11.3681 15.4997 11.0936 15.5176L11.1065 15.7151ZM12.2473 15.6792C13.2509 15.6568 14.5847 15.6433 16.0043 15.6433V15.4413C14.5847 15.4413 13.2466 15.4548 12.243 15.4772L12.2473 15.6792ZM16.0043 15.6433C17.4196 15.6433 18.7534 15.6568 19.757 15.6792L19.7613 15.4772C18.7577 15.4548 17.4239 15.4413 16.0043 15.4413V15.6433ZM19.757 15.6792C20.2459 15.6882 20.6319 15.7017 20.9021 15.7151L20.9106 15.5176C20.6405 15.4997 20.2545 15.4862 19.7613 15.4727V15.6792H19.757ZM20.9021 15.7151C21.1251 15.7286 21.2881 15.7376 21.3953 15.7825C21.4467 15.8049 21.4768 15.8274 21.4982 15.8588C21.5154 15.8857 21.5325 15.9306 21.5325 16.0024H21.7212C21.7247 15.9103 21.7007 15.8193 21.6526 15.7421C21.6056 15.6737 21.5398 15.622 21.4639 15.5939C21.3181 15.5356 21.1208 15.5266 20.9064 15.5176L20.9021 15.7151ZM21.5325 16.0024C21.5325 16.0743 21.5154 16.1147 21.4982 16.1461C21.4717 16.1805 21.4358 16.2056 21.3953 16.2179C21.2838 16.2628 21.1251 16.2718 20.9021 16.2853L20.9106 16.4873C21.1208 16.4738 21.3181 16.4648 21.4639 16.4065C21.5392 16.3796 21.605 16.3295 21.6526 16.2628C21.7007 16.1856 21.7247 16.0946 21.7212 16.0024H21.5325ZM20.9021 16.2853L19.757 16.3257L19.7613 16.5277C20.2545 16.5142 20.6405 16.5007 20.9106 16.4828L20.9021 16.2853ZM19.757 16.3257C18.7534 16.3481 17.4196 16.3616 16.0043 16.3616V16.5636C17.4196 16.5636 18.7577 16.5501 19.7613 16.5277V16.3257H19.757ZM17.4625 19.908H17.4539V20.1101H17.4625V19.908ZM14.5461 12.0924H14.5547V11.8904H14.5461V12.0924Z" fill="black"/>
</svg>
