<svg width="200" height="27" viewBox="0 0 200 27" fill="none" xmlns="http://www.w3.org/2000/svg">
<path d="M31.2183 22.3007C30.3783 22.3007 30.1483 21.8807 30.0983 21.5307C30.0837 21.4128 30.0939 21.2932 30.1283 21.1795C30.1628 21.0658 30.2207 20.9606 30.2983 20.8707C30.5783 20.5307 31.0183 20.5107 31.3083 20.5007H31.3383C43.5983 20.1007 49.4483 17.6507 52.1983 15.6507C54.0983 13.9807 53.6983 12.9307 53.5783 12.5907C52.2783 9.1307 40.5783 6.2907 31.7383 6.2607H31.5383C31.1383 6.2607 30.6583 6.2707 30.3383 5.9107C30.256 5.8174 30.1946 5.70752 30.1584 5.58849C30.1222 5.46946 30.1119 5.34404 30.1283 5.2207C30.2383 4.3607 31.2183 4.4307 31.5883 4.4607H31.7783C36.9583 4.5807 42.5583 5.3607 46.7583 6.5407C52.4983 8.1507 55.5183 10.4207 55.7383 13.2807V13.3907C55.5283 16.2707 52.4583 18.5707 46.6083 20.2107C41.6363 21.5125 36.527 22.2174 31.3883 22.3107H31.2183V22.3007ZM24.6983 22.2907H24.3983L24.1983 22.2707C19.1372 22.1771 14.1053 21.4823 9.20828 20.2007C3.46828 18.5807 0.448281 16.3207 0.238281 13.4607V13.3507C0.448281 10.4707 3.51828 8.1707 9.36828 6.5307C14.3403 5.22895 19.4496 4.52399 24.5883 4.4307H24.6983C25.5783 4.4107 25.8283 4.8307 25.8683 5.2007C25.8856 5.31718 25.8786 5.436 25.8476 5.54961C25.8166 5.66323 25.7624 5.76916 25.6883 5.8607C25.3983 6.2007 24.9583 6.2207 24.6683 6.2407H24.6383C12.3783 6.6207 6.52828 9.0807 3.77828 11.0807C1.87828 12.7607 2.27828 13.8007 2.39828 14.1507C3.69828 17.6107 15.3983 20.4407 24.2383 20.4707H24.4383C24.8283 20.4707 25.3183 20.4707 25.6383 20.8207C25.8083 21.0107 25.8783 21.2607 25.8383 21.5207C25.7583 22.2007 25.1383 22.3007 24.6983 22.3007V22.2907ZM27.9883 26.5107C27.2183 26.5107 27.1883 25.8407 27.1283 24.8207L27.0383 22.1507C26.9128 15.4042 26.9462 8.65565 27.1383 1.9107C27.1783 0.890703 27.2183 0.220703 27.9883 0.220703C28.7483 0.220703 28.7883 0.890703 28.8383 1.9107L28.9283 4.5907C29.057 11.3338 29.027 18.079 28.8383 24.8207C28.7883 25.8407 28.7483 26.5107 27.9883 26.5107Z" fill="white"/>
<path d="M27.9872 14.3904C24.6772 14.3904 21.5672 14.3604 19.2272 14.3104C18.3368 14.2925 17.4467 14.2625 16.5572 14.2204C15.5372 14.1704 14.8672 14.1404 14.8672 13.3704C14.8672 12.6004 15.5372 12.5704 16.5572 12.5104L19.2272 12.4204C25.957 12.2913 32.6888 12.3213 39.4172 12.5104C40.4272 12.5604 41.0972 12.6004 41.0972 13.3704C41.0972 14.1404 40.4272 14.1704 39.4172 14.2204C38.7872 14.2604 37.8872 14.2904 36.7472 14.3204C34.4072 14.3604 31.2872 14.3904 27.9872 14.3904Z" fill="white"/>
<path d="M31.22 22.3009V22.5309H31.44V22.3009H31.22ZM30.3 20.8709L30.12 20.7309L30.29 20.8709H30.3ZM52.2 15.6509L52.33 15.8409L52.34 15.8309H52.35L52.2 15.6509ZM53.58 12.5909L53.37 12.6709L53.57 12.5909H53.58ZM55.74 13.3309L55.96 13.3509V13.3109L55.74 13.3309ZM31.22 22.3109V22.0809H30.99V22.3109H31.22ZM24.7 22.3109H24.92V22.0809H24.7V22.3009V22.3109ZM24.4 22.2909L24.41 22.0709L24.39 22.2909H24.4ZM0.24 13.4209L0.00999999 13.4009V13.4409L0.24 13.4209ZM24.69 4.4409V4.6709H24.7V4.4209L24.69 4.4409ZM3.78 11.0809L3.64 10.9009L3.63 10.9109L3.78 11.0809ZM25.84 21.5209L25.63 21.4909L25.85 21.5209H25.84ZM24.7 22.3009H24.47V22.5309H24.7V22.3009ZM27.13 24.8209L26.91 24.8309H27.13V24.8209ZM27.14 1.9109L26.91 1.9009H27.13L27.14 1.9109ZM28.84 1.9109L29.07 1.9009H28.84V1.9109ZM28.84 24.8209L29.07 24.8309H28.84V24.8209ZM31.22 22.0809C30.84 22.0809 30.62 21.9809 30.52 21.8809C30.408 21.7839 30.3366 21.6482 30.32 21.5009L29.88 21.5609C29.91 21.7709 30 22.0209 30.22 22.2209C30.44 22.4209 30.76 22.5209 31.22 22.5209V22.0809ZM30.32 21.5009C30.3101 21.4149 30.3183 21.3277 30.3441 21.245C30.37 21.1623 30.4129 21.086 30.47 21.0209L30.12 20.7309C29.92 20.9609 29.84 21.2609 29.88 21.5609L30.33 21.5009H30.32ZM30.47 21.0209C30.67 20.7609 31.01 20.7409 31.32 20.7209L31.3 20.2709C31.02 20.2909 30.48 20.3009 30.12 20.7309L30.47 21.0209ZM31.31 20.7209H31.34V20.2709H31.31V20.7209ZM31.35 20.7209C43.63 20.3309 49.53 17.8709 52.33 15.8409L52.07 15.4709C49.37 17.4409 43.57 19.8809 31.33 20.2709L31.35 20.7209ZM52.35 15.8209C53.32 14.9609 53.73 14.2509 53.87 13.6709C54.01 13.0909 53.86 12.7009 53.79 12.5109L53.37 12.6709C53.43 12.8209 53.54 13.1209 53.43 13.5709C53.33 14.0209 52.98 14.6709 52.05 15.4909L52.35 15.8209ZM53.79 12.5109C53.43 11.5609 52.39 10.7109 50.97 9.9509C49.2408 9.08305 47.4238 8.40252 45.55 7.9209C41.0453 6.72649 36.41 6.09501 31.75 6.0409V6.4909C36.14 6.5109 41.25 7.2209 45.43 8.3609C47.52 8.9309 49.36 9.6009 50.76 10.3409C52.16 11.0909 53.08 11.8809 53.36 12.6709L53.79 12.5109ZM31.73 6.0409H31.54V6.4909H31.75V6.0409H31.73ZM31.53 6.0409C31.11 6.0409 30.73 6.0409 30.5 5.7709L30.16 6.0709C30.56 6.5109 31.16 6.4909 31.53 6.4909V6.0409ZM30.5 5.7709C30.4373 5.70093 30.3906 5.61821 30.363 5.52845C30.3354 5.43868 30.3275 5.34399 30.34 5.2509L29.9 5.1909C29.85 5.5109 29.95 5.8309 30.16 6.0609L30.5 5.7609V5.7709ZM30.34 5.2509C30.3513 5.11631 30.4077 4.98947 30.5 4.8909C30.586 4.80501 30.6928 4.74298 30.81 4.7109C31.08 4.6409 31.37 4.6609 31.56 4.6709L31.59 4.2209C31.41 4.2209 31.04 4.1809 30.69 4.2809C30.51 4.3309 30.33 4.4209 30.19 4.5809C30.03 4.7209 29.93 4.9309 29.89 5.1909L30.34 5.2509ZM31.56 4.6709L31.76 4.6809L31.78 4.2309H31.59L31.56 4.6709ZM31.76 4.6809C36.93 4.7909 42.52 5.5709 46.69 6.7409L46.82 6.3109C41.9035 5.02339 36.8514 4.32515 31.77 4.2309V4.6809H31.76ZM46.69 6.7409C49.55 7.5409 51.71 8.5109 53.18 9.6109C54.64 10.7109 55.4 11.9409 55.5 13.2809L55.95 13.2509C55.84 11.7409 54.98 10.4109 53.45 9.2509C51.93 8.1009 49.71 7.1209 46.83 6.3209L46.7 6.7509L46.69 6.7409ZM55.5 13.2909V13.3409L55.95 13.3009V13.2509L55.5 13.2909ZM55.5 13.3009V13.3609L55.95 13.4009V13.3409L55.51 13.3009H55.5ZM55.5 13.3609C55.4 14.7209 54.63 15.9609 53.14 17.0809C51.65 18.1909 49.45 19.1709 46.54 19.9809L46.66 20.4209C49.6 19.5909 51.86 18.6009 53.41 17.4409C54.97 16.2709 55.84 14.9209 55.95 13.3909L55.5 13.3609ZM46.54 19.9909C41.5871 21.2833 36.498 21.9816 31.38 22.0709V22.5209C36.65 22.4209 42.36 21.6209 46.66 20.4209L46.54 19.9909ZM31.36 22.0709H31.27V22.5209H31.35V22.0709H31.36ZM31.26 22.0709H31.21V22.5209H31.26V22.0709ZM24.68 22.0709L24.4 22.0609L24.36 22.5009L24.69 22.5209V22.0709H24.68ZM24.4 22.0609L24.2 22.0409L24.18 22.4909L24.37 22.5109L24.4 22.0609ZM24.2 22.0409C19.1564 21.952 14.1412 21.2638 9.26 19.9909L9.14 20.4209C14.0536 21.7043 19.1024 22.3991 24.18 22.4909L24.19 22.0409H24.2ZM9.26 19.9909C6.43 19.1809 4.26 18.2209 2.79 17.1209C1.33 16.0209 0.57 14.7909 0.47 13.4509L0.02 13.4809C0.13 14.9909 0.99 16.3209 2.52 17.4809C4.05 18.6309 6.27 19.6109 9.15 20.4209L9.27 19.9909H9.26ZM0.46 13.4509V13.3909L0 13.4309V13.4809L0.46 13.4509ZM0.46 13.4309V13.3709L0.00999999 13.3309V13.3909L0.45 13.4309H0.46ZM0.46 13.3709C0.56 12.0109 1.33 10.7709 2.82 9.6509C4.31 8.5409 6.51 7.5609 9.42 6.7509L9.3 6.3109C6.36 7.1409 4.1 8.1309 2.55 9.2909C1 10.4609 0.13 11.8209 0.02 13.3409L0.47 13.3709H0.46ZM9.42 6.7409C14.3729 5.44847 19.462 4.75022 24.58 4.6609V4.2109C19.31 4.3109 13.6 5.1109 9.3 6.3109L9.42 6.7409ZM24.6 4.6609H24.68V4.2109H24.6V4.6609ZM24.7 4.6609C25.1 4.6509 25.32 4.7409 25.44 4.8509C25.57 4.9509 25.62 5.0909 25.64 5.2309L26.09 5.1709C26.0589 4.91012 25.9303 4.67077 25.73 4.5009C25.5 4.3009 25.16 4.2009 24.68 4.2009L24.69 4.6609H24.7ZM25.64 5.2309C25.6521 5.31782 25.6459 5.40631 25.6218 5.49069C25.5976 5.57507 25.5562 5.65348 25.5 5.7209L25.85 6.0109C26.04 5.7709 26.13 5.4809 26.09 5.1709L25.64 5.2309ZM25.5 5.7209C25.3 5.9709 24.95 6.0009 24.65 6.0209L24.67 6.4609C24.94 6.4509 25.49 6.4309 25.85 6.0109L25.5 5.7109V5.7209ZM24.66 6.0209H24.63V6.4609H24.66V6.0209ZM24.62 6.0209C12.34 6.4009 6.44 8.8609 3.63 10.9009L3.9 11.2609C6.6 9.3009 12.4 6.8609 24.64 6.4609L24.62 6.0109V6.0209ZM3.62 10.9209C2.65 11.7709 2.24 12.4909 2.1 13.0609C1.96 13.6409 2.11 14.0409 2.18 14.2309L2.6 14.0709C2.54 13.9109 2.43 13.6209 2.54 13.1709C2.64 12.7109 2.99 12.0709 3.92 11.2509L3.62 10.9109V10.9209ZM2.19 14.2209C2.54 15.1709 3.59 16.0309 5.01 16.7909C6.45 17.5509 8.33 18.2409 10.43 18.8109C14.9342 20.0088 19.5696 20.6436 24.23 20.7009V20.2509C19.84 20.2309 14.73 19.5209 10.55 18.3809C8.70757 17.9091 6.92078 17.242 5.22 16.3909C3.81 15.6409 2.9 14.8509 2.62 14.0709L2.19 14.2309V14.2209ZM24.24 20.7009H24.43V20.2509H24.23V20.7009H24.24ZM24.44 20.7009C24.86 20.7009 25.24 20.7009 25.47 20.9709L25.81 20.6709C25.41 20.2209 24.81 20.2409 24.43 20.2509V20.7009H24.44ZM25.47 20.9709C25.59 21.1109 25.65 21.3009 25.63 21.4909L26.07 21.5509C26.0926 21.3941 26.081 21.2344 26.0361 21.0825C25.9913 20.9306 25.9141 20.7902 25.81 20.6709L25.47 20.9709ZM25.63 21.4909C25.59 21.7509 25.46 21.8909 25.3 21.9609C25.13 22.0609 24.9 22.0809 24.7 22.0809V22.5309C24.93 22.5309 25.24 22.5009 25.5 22.3709C25.79 22.2209 26.02 21.9709 26.07 21.5509L25.63 21.4909ZM27.99 26.2809C27.8787 26.2913 27.7668 26.2668 27.67 26.2109C27.5896 26.1507 27.5302 26.0667 27.5 25.9709C27.4 25.7109 27.38 25.3309 27.36 24.8109L26.91 24.8309C26.93 25.3309 26.95 25.7909 27.08 26.1309C27.15 26.3009 27.25 26.4609 27.41 26.5709C27.57 26.6809 27.76 26.7309 27.99 26.7309V26.2809ZM27.36 24.8109C27.3146 23.9214 27.2813 23.0313 27.26 22.1409L26.82 22.1509C26.84 23.3009 26.87 24.2009 26.91 24.8309L27.36 24.8109ZM27.26 22.1409C27.22 19.7909 27.19 16.6809 27.19 13.3709H26.74C26.74 16.6809 26.77 19.8009 26.82 22.1509L27.27 22.1409H27.26ZM27.19 13.3709C27.19 10.0509 27.22 6.9409 27.27 4.5909H26.82C26.77 6.9309 26.74 10.0509 26.74 13.3709H27.19ZM27.27 4.5909C27.29 3.4509 27.32 2.5509 27.36 1.9209L26.91 1.9009C26.87 2.5309 26.84 3.4309 26.82 4.5809L27.27 4.5909ZM27.36 1.9209C27.38 1.4009 27.41 1.0209 27.5 0.7609C27.55 0.6409 27.6 0.5709 27.67 0.5309C27.7657 0.471511 27.8776 0.443539 27.99 0.4509V0.000899562C27.7847 -0.00790244 27.5818 0.0480696 27.41 0.1609C27.2577 0.270485 27.1426 0.424014 27.08 0.6009C26.95 0.9409 26.93 1.4009 26.91 1.9009L27.36 1.9209ZM27.99 0.4509C28.15 0.4509 28.24 0.4809 28.31 0.5309C28.37 0.5709 28.43 0.6409 28.47 0.7609C28.57 1.0209 28.59 1.4009 28.62 1.9209L29.07 1.9009C29.04 1.4009 29.02 0.9409 28.89 0.6009C28.8296 0.425614 28.7181 0.272389 28.57 0.1609C28.3982 0.0480696 28.1953 -0.00790244 27.99 0.000899562V0.4509ZM28.62 1.9209L28.71 4.5909H29.15C29.1357 3.69058 29.109 2.79049 29.07 1.8909L28.62 1.9209ZM28.71 4.5909C28.76 6.9309 28.78 10.0509 28.78 13.3709H29.23C29.23 10.0509 29.21 6.9309 29.15 4.5809L28.71 4.5909ZM28.78 13.3709C28.78 16.6809 28.76 19.8009 28.71 22.1409L29.15 22.1509C29.21 19.8009 29.23 16.6809 29.23 13.3709H28.78ZM28.71 22.1409C28.6888 23.0313 28.6554 23.9214 28.61 24.8109L29.07 24.8309C29.1 24.2009 29.13 23.3009 29.15 22.1509L28.71 22.1409ZM28.61 24.8109C28.59 25.3309 28.57 25.7109 28.47 25.9709C28.43 26.0909 28.37 26.1609 28.31 26.2109C28.2132 26.2668 28.1013 26.2913 27.99 26.2809V26.7309C28.21 26.7309 28.41 26.6809 28.57 26.5709C28.7181 26.4594 28.8296 26.3062 28.89 26.1309C29.02 25.7909 29.04 25.3309 29.07 24.8309L28.62 24.8109H28.61ZM27.99 14.1709C24.68 14.1709 21.57 14.1409 19.23 14.0909V14.5409C21.56 14.5909 24.68 14.6209 27.99 14.6209V14.1709ZM19.23 14.0909C18.343 14.073 17.4562 14.043 16.57 14.0009L16.54 14.4509L19.22 14.5409L19.23 14.0909ZM16.57 14.0009C16.05 13.9709 15.67 13.9509 15.41 13.8509C15.3191 13.8216 15.239 13.7659 15.18 13.6909C15.1206 13.5952 15.0926 13.4833 15.1 13.3709H14.65C14.65 13.5909 14.7 13.7909 14.81 13.9509C14.92 14.1109 15.08 14.2109 15.25 14.2709C15.59 14.4009 16.05 14.4209 16.55 14.4509L16.57 14.0009ZM15.1 13.3709C15.1 13.2109 15.13 13.1109 15.18 13.0509C15.2402 12.9705 15.3242 12.9111 15.42 12.8809C15.67 12.7809 16.05 12.7609 16.57 12.7309L16.54 12.2909C16.05 12.3109 15.59 12.3309 15.26 12.4609C15.0798 12.5222 14.9227 12.6374 14.81 12.7909C14.6978 12.963 14.6419 13.1656 14.65 13.3709H15.1ZM16.57 12.7309C17.19 12.7009 18.09 12.6709 19.23 12.6509V12.2009C18.08 12.2209 17.18 12.2509 16.54 12.2909L16.57 12.7309ZM19.23 12.6509C21.57 12.6009 24.68 12.5709 27.99 12.5709V12.1209C24.68 12.1209 21.56 12.1509 19.22 12.2009L19.23 12.6509ZM27.99 12.5709C31.29 12.5709 34.4 12.6009 36.74 12.6509L36.75 12.2009C34.41 12.1509 31.3 12.1209 27.99 12.1209V12.5709ZM36.74 12.6509C37.88 12.6709 38.78 12.7009 39.41 12.7309L39.43 12.2909C38.8 12.2509 37.9 12.2209 36.75 12.1909V12.6509H36.74ZM39.41 12.7309C39.93 12.7609 40.31 12.7809 40.56 12.8809C40.68 12.9309 40.75 12.9809 40.8 13.0509C40.84 13.1109 40.88 13.2109 40.88 13.3709H41.32C41.3281 13.1656 41.2722 12.963 41.16 12.7909C41.0504 12.6386 40.8969 12.5235 40.72 12.4609C40.38 12.3309 39.92 12.3109 39.42 12.2909L39.41 12.7309ZM40.88 13.3709C40.88 13.5309 40.84 13.6209 40.8 13.6909C40.7383 13.7676 40.6545 13.8234 40.56 13.8509C40.3 13.9509 39.93 13.9709 39.41 14.0009L39.43 14.4509C39.92 14.4209 40.38 14.4009 40.72 14.2709C40.8956 14.211 41.0489 14.0995 41.16 13.9509C41.2722 13.7788 41.3281 13.5761 41.32 13.3709H40.88ZM39.41 14.0009L36.74 14.0909L36.75 14.5409C37.9 14.5109 38.8 14.4809 39.43 14.4409L39.41 14.0009ZM36.74 14.0909C34.4 14.1409 31.29 14.1709 27.99 14.1709V14.6209C31.29 14.6209 34.41 14.5909 36.75 14.5409V14.0909H36.74ZM31.39 22.0709H31.37V22.5209H31.39V22.0709ZM24.59 4.6609H24.61V4.2109H24.59V4.6609Z" fill="white"/>
<path d="M141.811 9.50992C142.211 8.76992 142.771 8.20992 143.491 7.82992C144.221 7.42992 145.091 7.22992 146.091 7.22992C146.951 7.22992 147.681 7.34991 148.271 7.61992C148.891 7.87991 149.391 8.24992 149.771 8.74992C150.161 9.23992 150.441 9.81992 150.611 10.5099C150.811 11.1899 150.911 11.9499 150.911 12.7899V21.6899H147.781V13.5599C147.781 13.0799 147.751 12.6199 147.701 12.1599C147.656 11.7398 147.53 11.3324 147.331 10.9599C147.155 10.5912 146.868 10.2869 146.511 10.0899C146.075 9.85764 145.584 9.7471 145.091 9.76992C144.491 9.76992 143.991 9.87992 143.571 10.1099C143.151 10.3199 142.811 10.6199 142.541 11.0099C142.281 11.3899 142.091 11.8599 141.961 12.3999C141.861 12.9399 141.811 13.5299 141.811 14.1599V21.6799H138.681V7.53992H141.811V9.50992ZM129.801 19.4699C130.331 19.4699 130.801 19.3699 131.251 19.1799C131.728 18.9497 132.147 18.6155 132.477 18.2019C132.808 17.7883 133.041 17.3058 133.161 16.7899C133.361 16.1799 133.461 15.4599 133.461 14.6299C133.461 13.8299 133.361 13.1199 133.161 12.5099C133.016 11.9529 132.757 11.432 132.401 10.9799C132.085 10.5974 131.688 10.291 131.238 10.0832C130.788 9.87546 130.296 9.7718 129.801 9.77992C129.305 9.7718 128.814 9.87546 128.364 10.0832C127.914 10.291 127.516 10.5974 127.201 10.9799C126.861 11.3799 126.601 11.8899 126.401 12.5099C126.221 13.2018 126.136 13.9151 126.151 14.6299C126.151 15.4599 126.231 16.1799 126.411 16.7899C126.611 17.3899 126.861 17.8899 127.201 18.2899C127.531 18.6699 127.921 18.9699 128.351 19.1899C128.791 19.3799 129.271 19.4699 129.801 19.4699ZM129.801 7.21992C130.701 7.21992 131.551 7.36992 132.381 7.66992C133.225 7.97991 133.994 8.46553 134.637 9.09471C135.28 9.7239 135.783 10.4823 136.111 11.3199C136.491 12.2499 136.691 13.3599 136.691 14.6299C136.718 15.764 136.521 16.8923 136.111 17.9499C135.79 18.7918 135.29 19.5542 134.646 20.1843C134.002 20.8144 133.229 21.2974 132.381 21.5999C130.709 22.1744 128.893 22.1744 127.221 21.5999C126.405 21.3045 125.657 20.8489 125.021 20.2599C124.358 19.6027 123.837 18.8165 123.491 17.9499C123.08 16.8923 122.883 15.764 122.911 14.6299C122.911 13.3599 123.111 12.2499 123.491 11.3299C123.816 10.4903 124.317 9.73015 124.96 9.10053C125.603 8.47091 126.374 7.98649 127.221 7.67992C128.051 7.36992 128.911 7.21992 129.801 7.21992ZM112.091 9.50992C112.491 8.76992 113.051 8.20992 113.771 7.82992C114.511 7.42992 115.371 7.22992 116.371 7.22992C117.231 7.22992 117.961 7.34991 118.561 7.61992C119.171 7.87991 119.661 8.24992 120.061 8.74992C120.441 9.23992 120.721 9.81992 120.901 10.5099C121.091 11.1899 121.191 11.9499 121.191 12.7899V21.6899H118.061V13.5599C118.061 13.0799 118.031 12.6199 117.981 12.1599C117.936 11.7398 117.81 11.3324 117.611 10.9599C117.438 10.5927 117.155 10.2885 116.801 10.0899C116.365 9.85764 115.874 9.7471 115.381 9.76992C114.781 9.76992 114.281 9.87992 113.851 10.1099C113.431 10.3199 113.091 10.6199 112.821 11.0099C112.561 11.3899 112.371 11.8599 112.251 12.3999C112.151 12.9399 112.091 13.5299 112.091 14.1599V21.6799H108.961V2.61992H112.091V9.50992ZM96.5708 14.6099C96.5708 15.4299 96.6608 16.1499 96.8308 16.7599C97.0308 17.3599 97.2908 17.8599 97.6308 18.2599C97.9608 18.6599 98.3408 18.9699 98.7808 19.1799C99.2408 19.3799 99.7208 19.4799 100.231 19.4799C101.331 19.4799 102.191 19.0399 102.801 18.1799C103.421 17.3099 103.721 16.1199 103.721 14.6099C103.721 13.1099 103.421 11.9399 102.801 11.0899C102.52 10.6693 102.137 10.3273 101.687 10.0964C101.237 9.86535 100.736 9.753 100.231 9.76992C99.7354 9.77002 99.2461 9.87837 98.797 10.0874C98.3479 10.2964 97.9499 10.601 97.6308 10.9799C97.2908 11.3699 97.0308 11.8699 96.8308 12.4799C96.6461 13.1745 96.5587 13.8913 96.5708 14.6099ZM96.7008 7.53992V9.42992C97.1208 8.72992 97.7008 8.17992 98.4108 7.79992C99.1826 7.40075 100.042 7.20134 100.911 7.21992C101.771 7.21992 102.571 7.39992 103.311 7.74992C104.061 8.07992 104.711 8.56992 105.251 9.21992C105.791 9.86992 106.211 10.6499 106.511 11.5599C106.821 12.4699 106.981 13.4899 106.981 14.6099C106.981 15.7499 106.821 16.7699 106.511 17.6799C106.211 18.5999 105.791 19.3799 105.251 20.0199C104.443 20.9998 103.324 21.6745 102.08 21.9327C100.837 22.1909 99.5423 22.0171 98.4108 21.4399C97.7056 21.0624 97.1176 20.4986 96.7108 19.8099V26.2799H93.5708V7.53992H96.7008ZM84.7008 19.4699C85.2208 19.4699 85.7008 19.3699 86.1408 19.1799C86.6191 18.9503 87.0398 18.6165 87.3721 18.2029C87.7043 17.7893 87.9397 17.3064 88.0608 16.7899C88.2608 16.1799 88.3508 15.4599 88.3508 14.6299C88.3508 13.8299 88.2508 13.1199 88.0608 12.5099C87.9163 11.9527 87.6575 11.4317 87.3008 10.9799C86.9854 10.5974 86.5878 10.291 86.1377 10.0832C85.6876 9.87546 85.1965 9.7718 84.7008 9.77992C84.2051 9.7718 83.714 9.87546 83.2638 10.0832C82.8137 10.291 82.4162 10.5974 82.1008 10.9799C81.7608 11.3799 81.5008 11.8899 81.3008 12.5099C81.1171 13.2013 81.0296 13.9147 81.0408 14.6299C81.0408 15.4599 81.1308 16.1799 81.3008 16.7899C81.5008 17.3899 81.7608 17.8899 82.1008 18.2899C82.4308 18.6699 82.8108 18.9699 83.2508 19.1899C83.6908 19.3799 84.1708 19.4699 84.7008 19.4699ZM84.7008 7.21992C85.5908 7.21992 86.4508 7.36992 87.2708 7.66992C88.1153 7.97991 88.8844 8.46553 89.5274 9.09471C90.1704 9.7239 90.6726 10.4823 91.0008 11.3199C91.4008 12.2499 91.5808 13.3599 91.5808 14.6299C91.5808 15.9099 91.3908 17.0199 91.0108 17.9499C90.69 18.7918 90.1904 19.5542 89.5464 20.1843C88.9024 20.8144 88.1295 21.2974 87.2808 21.5999C85.6088 22.1744 83.7928 22.1744 82.1208 21.5999C81.3054 21.3045 80.5574 20.8489 79.9208 20.2599C79.2583 19.6025 78.7376 18.8164 78.3908 17.9499C77.9806 16.8923 77.7835 15.764 77.8108 14.6299C77.8108 13.3599 78.0108 12.2499 78.3908 11.3299C78.7156 10.4903 79.2167 9.73015 79.8601 9.10053C80.5035 8.47091 81.2744 7.98649 82.1208 7.67992C82.9408 7.36992 83.8008 7.21992 84.7008 7.21992ZM66.5708 13.0299C65.8442 12.8806 65.1317 12.6698 64.4408 12.3999C63.8011 12.1345 63.2071 11.77 62.6808 11.3199C62.1808 10.8799 61.7908 10.3699 61.4908 9.76992C61.1986 9.09857 61.0553 8.37191 61.0708 7.63992C61.0708 6.73992 61.2808 5.96991 61.7008 5.29991C62.1208 4.63991 62.6808 4.07991 63.3608 3.64991C64.0687 3.1816 64.8493 2.83358 65.6708 2.61992C67.3933 2.15534 69.2082 2.15534 70.9308 2.61992C72.1756 2.92498 73.2999 3.59732 74.1577 4.54961C75.0154 5.50189 75.567 6.69011 75.7408 7.95992H72.5108C72.3989 7.44346 72.1734 6.9584 71.8508 6.53992C71.5508 6.14992 71.2008 5.84991 70.8008 5.63991C69.5841 5.04871 68.207 4.87306 66.8808 5.13991C66.4608 5.23991 66.0708 5.37991 65.7008 5.58991C65.3508 5.78991 65.0508 6.03992 64.8008 6.34992C64.5608 6.66992 64.4408 7.05992 64.4408 7.53992C64.4408 8.26992 64.7008 8.83992 65.2308 9.23992C65.7708 9.63992 66.4508 9.89992 67.2808 10.0599L69.6208 10.5099C70.4608 10.6599 71.2608 10.8799 72.0308 11.1399C72.8308 11.3799 73.5208 11.7299 74.1108 12.1599C74.7208 12.5999 75.2108 13.1399 75.5808 13.7899C75.9508 14.4399 76.1408 15.2499 76.1408 16.2099C76.1408 17.1799 75.9208 18.0299 75.4808 18.7599C75.0385 19.4847 74.445 20.1055 73.7408 20.5799C72.9991 21.0684 72.1813 21.43 71.3208 21.6499C70.4308 21.8999 69.5208 22.0199 68.5608 22.0199C67.4208 22.0199 66.3808 21.8699 65.4408 21.5799C64.5511 21.301 63.7205 20.8602 62.9908 20.2799C62.3024 19.6981 61.7379 18.984 61.3308 18.1799C60.8988 17.3033 60.6342 16.3537 60.5508 15.3799H63.8308C64.0318 16.5255 64.6259 17.5651 65.5108 18.3199C66.3408 18.9599 67.4108 19.2899 68.7208 19.2899C69.2808 19.2899 69.8108 19.2299 70.3008 19.0999C70.8008 18.9799 71.2508 18.7999 71.6108 18.5499C71.9761 18.3285 72.2772 18.0155 72.4841 17.6419C72.6911 17.2683 72.7968 16.847 72.7908 16.4199C72.7908 15.9299 72.6708 15.5199 72.4308 15.1899C72.1898 14.8455 71.8756 14.5586 71.5108 14.3499C71.1408 14.1199 70.7208 13.9499 70.2508 13.8199C69.7908 13.6799 69.3408 13.5699 68.8808 13.4799L66.5708 13.0299Z" fill="white"/>
<path d="M158.148 21.7309V11.8666H159.529L164.601 19.0444H164.704V11.8666H166.194V21.7309H164.813L159.748 14.5668H159.638V21.7309H158.148Z" fill="white" fill-opacity="0.76"/>
<path d="M171.649 21.8745C169.468 21.8745 168.135 20.4184 168.135 18.0258V18.0121C168.135 15.6264 169.475 14.1635 171.649 14.1635C173.816 14.1635 175.156 15.6196 175.156 18.0121V18.0258C175.156 20.4184 173.823 21.8745 171.649 21.8745ZM171.649 20.6371C172.921 20.6371 173.645 19.6664 173.645 18.0258V18.0121C173.645 16.3647 172.921 15.4008 171.649 15.4008C170.371 15.4008 169.653 16.3647 169.653 18.0121V18.0258C169.653 19.6733 170.371 20.6371 171.649 20.6371Z" fill="white" fill-opacity="0.76"/>
<path d="M179.633 21.8539C177.767 21.8539 176.557 20.3569 176.557 18.0258V18.0121C176.557 15.6606 177.747 14.1772 179.633 14.1772C180.652 14.1772 181.52 14.683 181.917 15.4829H182.033V11.395H183.509V21.7309H182.033V20.562H181.917C181.486 21.3754 180.673 21.8539 179.633 21.8539ZM180.057 20.5893C181.295 20.5893 182.053 19.6118 182.053 18.0258V18.0121C182.053 16.4262 181.288 15.4487 180.057 15.4487C178.813 15.4487 178.068 16.4194 178.068 18.0121V18.0258C178.068 19.6186 178.813 20.5893 180.057 20.5893Z" fill="white" fill-opacity="0.76"/>
<path d="M188.835 21.8745C186.661 21.8745 185.348 20.3911 185.348 18.0395V18.0327C185.348 15.7153 186.688 14.1635 188.759 14.1635C190.831 14.1635 192.102 15.6606 192.102 17.8891V18.4086H186.839C186.866 19.8305 187.645 20.6577 188.869 20.6577C189.819 20.6577 190.386 20.186 190.564 19.8032L190.591 19.7485L192.02 19.7416L192.006 19.8032C191.76 20.7807 190.735 21.8745 188.835 21.8745ZM188.766 15.3803C187.755 15.3803 186.989 16.0707 186.859 17.3491H190.632C190.516 16.0229 189.771 15.3803 188.766 15.3803Z" fill="white" fill-opacity="0.76"/>
<path d="M196.566 21.8745C194.775 21.8745 193.64 21.0336 193.497 19.7895V19.7827H194.98L194.987 19.7895C195.172 20.35 195.712 20.726 196.593 20.726C197.509 20.726 198.145 20.309 198.145 19.7006V19.687C198.145 19.2221 197.797 18.9077 196.935 18.7094L195.753 18.436C194.351 18.1147 193.702 17.4789 193.702 16.392V16.3852C193.702 15.0932 194.905 14.1635 196.587 14.1635C198.282 14.1635 199.369 15.0112 199.499 16.2211V16.228H198.084V16.2143C197.94 15.6948 197.414 15.3051 196.58 15.3051C195.766 15.3051 195.178 15.7084 195.178 16.3032V16.3168C195.178 16.7817 195.52 17.0688 196.354 17.267L197.53 17.5336C198.959 17.8686 199.642 18.477 199.642 19.5502V19.5639C199.642 20.9379 198.33 21.8745 196.566 21.8745Z" fill="white" fill-opacity="0.76"/>
</svg>
